<?xml version="1.0" encoding="utf-8"?>
<!-- Generator: Adobe Illustrator 22.0.0, SVG Export Plug-In . SVG Version: 6.00 Build 0)  -->
<svg version="1.1" id="Layer_1" xmlns="http://www.w3.org/2000/svg" xmlns:xlink="http://www.w3.org/1999/xlink" x="0px" y="0px"
	 viewBox="0 0 24 24" style="enable-background:new 0 0 24 24;" xml:space="preserve">
<style type="text/css">
	.st0{fill:none;}
	.st1{fill:#FFFFFF;}
</style>
<path class="st0" d="M0,0h24v24H0V0z"/>
<circle class="st1" cx="4.5" cy="9.5" r="2.5"/>
<circle class="st1" cx="9" cy="5.5" r="2.5"/>
<circle class="st1" cx="15" cy="5.5" r="2.5"/>
<circle class="st1" cx="19.5" cy="9.5" r="2.5"/>
<path class="st1" d="M17.3,14.9c-0.9-1-1.6-1.9-2.5-2.9c-0.5-0.5-1.1-1.1-1.8-1.3c-0.1,0-0.2-0.1-0.3-0.1c-0.3,0-0.5,0-0.8,0
	s-0.5,0-0.8,0.1c-0.1,0-0.2,0.1-0.3,0.1C10.1,11,9.5,11.6,9,12.1c-0.9,1-1.6,1.9-2.5,2.9c-1.3,1.3-2.9,2.8-2.6,4.8
	c0.3,1,1,2,2.3,2.3c0.7,0.1,3.1-0.4,5.5-0.4h0.2c2.5,0,4.8,0.6,5.5,0.4c1.3-0.3,2-1.3,2.3-2.3C20.3,17.6,18.7,16.2,17.3,14.9z"/>
</svg>
